<!DOCTYPE svg PUBLIC "-//W3C//DTD SVG 1.1//EN" "http://www.w3.org/Graphics/SVG/1.1/DTD/svg11.dtd">
<!-- Uploaded to: SVG Repo, www.svgrepo.com, Transformed by: SVG Repo Mixer Tools -->
<svg fill="#ffffff" width="800px" height="800px" viewBox="0 0 1000 1000" xmlns="http://www.w3.org/2000/svg" stroke="#ffffff">
<g id="SVGRepo_bgCarrier" stroke-width="0"/>
<g id="SVGRepo_tracerCarrier" stroke-linecap="round" stroke-linejoin="round"/>
<g id="SVGRepo_iconCarrier">
<path d="M500 930q-117 0-217-59-97-57-154-154-59-100-59-217t59-217q57-97 154-154 100-59 217-59t217 59q97 57 154 154 59 100 59 217t-59 217q-57 97-154 154-100 59-217 59zM320 760q39 28 85.5 42.5T500 817q86 0 160-44 71-42 113-113 44-74 44-160 0-48-14.5-94.5T760 320zm180-577q-86 0-160 44-71 42-113 113-44 74-44 160 0 48 14.5 94.5T240 680l440-440q-39-28-85.5-42.5T500 183z"/>
</g>
</svg>